<svg width="64" height="64" viewBox="0 0 64 64" fill="none" xmlns="http://www.w3.org/2000/svg">
<path d="M24 16C24 20.4183 27.5817 24 32 24C36.4183 24 40 20.4183 40 16C40 11.5817 36.4183 8 32 8C27.5817 8 24 11.5817 24 16Z" fill="#3A4255"/>
<path d="M6.66666 48C6.66666 52.4183 10.2484 56 14.6667 56C19.0849 56 22.6667 52.4183 22.6667 48C22.6667 43.5817 19.0849 40 14.6667 40C10.2484 40 6.66666 43.5817 6.66666 48Z" fill="#3A4255"/>
<path d="M49.3333 56C44.915 56 41.3333 52.4183 41.3333 48C41.3333 43.5817 44.915 40 49.3333 40C53.7516 40 57.3333 43.5817 57.3333 48C57.3333 52.4183 53.7516 56 49.3333 56Z" fill="#3A4255"/>
<path d="M19.2125 20.1662C20.0406 19.4352 20.1194 18.1713 19.3885 17.3432C18.6576 16.5151 17.3937 16.4363 16.5655 17.1672C11.7247 21.4398 8.66666 27.6974 8.66666 34.6667C8.66666 35.7713 9.56209 36.6667 10.6667 36.6667C11.7712 36.6667 12.6667 35.7713 12.6667 34.6667C12.6667 28.8926 15.1954 23.7116 19.2125 20.1662Z" fill="#3A4255"/>
<path d="M47.4344 17.1672C46.6063 16.4363 45.3424 16.5151 44.6115 17.3432C43.8806 18.1713 43.9594 19.4352 44.7875 20.1662C48.8046 23.7116 51.3333 28.8926 51.3333 34.6667C51.3333 35.7713 52.2288 36.6667 53.3333 36.6667C54.4379 36.6667 55.3333 35.7713 55.3333 34.6667C55.3333 27.6974 52.2753 21.4398 47.4344 17.1672Z" fill="#3A4255"/>
<path d="M27.1652 53.3911C26.0955 53.1158 25.0051 53.7598 24.7298 54.8295C24.4545 55.8992 25.0984 56.9895 26.1681 57.2648C28.0343 57.7452 29.9888 58.0001 32 58.0001C34.0112 58.0001 35.9657 57.7452 37.8318 57.2648C38.9015 56.9895 39.5455 55.8992 39.2702 54.8295C38.9949 53.7598 37.9045 53.1158 36.8348 53.3911C35.2917 53.7883 33.672 54.0001 32 54.0001C30.328 54.0001 28.7083 53.7883 27.1652 53.3911Z" fill="#3A4255"/>
</svg>
