<svg width="29" height="29" viewBox="0 0 29 29" fill="none" xmlns="http://www.w3.org/2000/svg">
<path d="M11 7.5C11 9.433 12.567 11 14.5 11C16.433 11 18 9.433 18 7.5C18 5.567 16.433 4 14.5 4C12.567 4 11 5.567 11 7.5Z" fill="#3A4255"/>
<path d="M3.41663 21.5C3.41663 23.433 4.98363 25 6.91663 25C8.84962 25 10.4166 23.433 10.4166 21.5C10.4166 19.567 8.84962 18 6.91663 18C4.98363 18 3.41663 19.567 3.41663 21.5Z" fill="#3A4255"/>
<path d="M22.0833 25C20.1503 25 18.5833 23.433 18.5833 21.5C18.5833 19.567 20.1503 18 22.0833 18C24.0163 18 25.5833 19.567 25.5833 21.5C25.5833 23.433 24.0163 25 22.0833 25Z" fill="#3A4255"/>
<path d="M8.90542 9.32269C9.26773 9.00291 9.30221 8.44997 8.98243 8.08765C8.66265 7.72534 8.1097 7.69086 7.74739 8.01064C5.62952 9.8799 4.29163 12.6176 4.29163 15.6667C4.29163 16.1499 4.68338 16.5417 5.16663 16.5417C5.64987 16.5417 6.04163 16.1499 6.04163 15.6667C6.04163 13.1405 7.14795 10.8738 8.90542 9.32269Z" fill="#3A4255"/>
<path d="M21.2525 8.01064C20.8902 7.69086 20.3373 7.72534 20.0175 8.08765C19.6977 8.44997 19.7322 9.00291 20.0945 9.32269C21.852 10.8738 22.9583 13.1405 22.9583 15.6667C22.9583 16.1499 23.35 16.5417 23.8333 16.5417C24.3165 16.5417 24.7083 16.1499 24.7083 15.6667C24.7083 12.6176 23.3704 9.8799 21.2525 8.01064Z" fill="#3A4255"/>
<path d="M12.3847 23.8586C11.9167 23.7382 11.4397 24.0199 11.3192 24.4879C11.1988 24.9559 11.4805 25.4329 11.9485 25.5534C12.765 25.7635 13.6201 25.875 14.5 25.875C15.3798 25.875 16.235 25.7635 17.0514 25.5534C17.5194 25.4329 17.8011 24.9559 17.6807 24.4879C17.5602 24.0199 17.0832 23.7382 16.6152 23.8586C15.9401 24.0324 15.2315 24.125 14.5 24.125C13.7684 24.125 13.0599 24.0324 12.3847 23.8586Z" fill="#3A4255"/>
</svg>
