<svg width="128" height="128" viewBox="0 0 128 128" fill="none" xmlns="http://www.w3.org/2000/svg">
<g clip-path="url(#clip0_35_44)">
<path d="M4.79393 45.7294C6.6609 58.7717 12.0703 94.5161 17.9584 113.624C18.3824 115.006 19.2304 116.096 20.2973 116.6C25.3374 118.991 41.21 126.016 57.363 127.959C58.4436 128.089 59.5309 127.943 60.5704 127.545C68.4144 124.585 94.6066 114.933 112.148 105.761C113.324 105.152 114.193 103.826 114.494 102.2C116.231 92.8573 122.201 59.7881 123.452 41.0052C123.63 38.2813 122.256 35.8745 120.279 35.4354C112.305 33.6791 100.707 25.6699 80.9566 25.4748C80.813 25.4748 80.6762 25.4748 80.5326 25.4992C77.1337 25.9545 33.5028 31.8984 7.60464 39.7855C5.62826 40.3872 4.41097 42.9811 4.80077 45.7213L4.79393 45.7294Z" fill="url(#paint0_linear_35_44)"/>
<g style="mix-blend-mode:color-dodge" opacity="0.22">
<path d="M14.1971 79.4085C15.9957 81.547 17.8284 82.8398 18.2935 82.2869C18.7585 81.734 17.6712 79.5548 15.8726 77.4163C14.074 75.2779 12.2412 73.985 11.7762 74.5379C11.3112 75.0908 12.3985 77.27 14.1971 79.4085Z" fill="#FF83FB"/>
<path d="M30.1655 83.8074C31.9641 85.9459 33.7968 87.2387 34.2619 86.6858C34.7269 86.1329 33.6395 83.9538 31.841 81.8153C30.0424 79.6768 28.2096 78.384 27.7446 78.9369C27.2795 79.4898 28.3669 81.6689 30.1655 83.8074Z" fill="#FF83FB"/>
<path d="M19.6407 98.3458C21.4393 100.484 23.272 101.777 23.7371 101.224C24.2021 100.671 23.1148 98.4922 21.3162 96.3537C19.5176 94.2152 17.6848 92.9224 17.2198 93.4753C16.7548 94.0282 17.8421 96.2073 19.6407 98.3458Z" fill="#FF83FB"/>
<path d="M41.8529 70.3829C43.6514 72.5214 45.4842 73.8143 45.9492 73.2613C46.4143 72.7084 45.3269 70.5293 43.5283 68.3908C41.7298 66.2523 39.897 64.9595 39.432 65.5124C38.9669 66.0653 40.0543 68.2444 41.8529 70.3829Z" fill="#FF83FB"/>
<path d="M38.8917 106.859C40.6903 108.998 42.523 110.29 42.9881 109.738C43.4531 109.185 42.3657 107.005 40.5672 104.867C38.7686 102.729 36.9358 101.436 36.4708 101.989C36.0057 102.541 37.0931 104.721 38.8917 106.859Z" fill="#FF83FB"/>
<path d="M54.8601 111.258C56.6586 113.397 58.4914 114.689 58.9564 114.136C59.4215 113.584 58.3341 111.404 56.5355 109.266C54.737 107.127 52.9042 105.835 52.4392 106.388C51.9741 106.94 53.0615 109.12 54.8601 111.258Z" fill="#FF83FB"/>
<path d="M45.833 122.544C47.6315 124.683 49.4643 125.975 49.9293 125.422C50.3944 124.87 49.307 122.69 47.5084 120.552C45.7099 118.413 43.8771 117.121 43.4121 117.673C42.947 118.226 44.0344 120.406 45.833 122.544Z" fill="#FF83FB"/>
<path d="M49.2044 89.987C51.003 92.1255 52.8358 93.4184 53.3008 92.8655C53.7658 92.3125 52.6785 90.1334 50.8799 87.9949C49.0813 85.8564 47.2485 84.5636 46.7835 85.1165C46.3185 85.6694 47.4058 87.8486 49.2044 89.987Z" fill="#FF83FB"/>
<path d="M61.1859 77.7091C62.3416 79.0832 63.6478 79.7418 64.1128 79.1971C64.5779 78.6441 64.0171 77.0911 62.8614 75.7169C61.7056 74.3428 60.3994 73.6842 59.9344 74.2289C59.4694 74.7819 60.0301 76.3349 61.1859 77.7091Z" fill="#FF83FB"/>
<path d="M73.6186 77.9042C74.7744 79.2784 76.0806 79.937 76.5456 79.3922C77.0106 78.8393 76.4498 77.2862 75.2941 75.9121C74.1384 74.5379 72.8322 73.8793 72.3671 74.4241C71.9021 74.977 72.4629 76.53 73.6186 77.9042Z" fill="#FF83FB"/>
<path d="M62.7929 92.0767C63.9487 93.4509 65.2549 94.1095 65.7199 93.5647C66.1849 93.0118 65.6242 91.4588 64.4684 90.0846C63.3127 88.7105 62.0065 88.0518 61.5415 88.5966C61.0764 89.1495 61.6372 90.7026 62.7929 92.0767Z" fill="#FF83FB"/>
<path d="M75.424 94.2152C76.5798 95.5894 77.886 96.248 78.351 95.7032C78.816 95.1584 78.2553 93.5973 77.0995 92.2231C75.9438 90.8489 74.6376 90.1903 74.1726 90.7351C73.7075 91.2799 74.2683 92.8411 75.424 94.2152Z" fill="#FF83FB"/>
<path d="M87.8568 94.4185C89.0125 95.7927 90.3187 96.4513 90.7837 95.9065C91.2488 95.3536 90.688 93.8005 89.5323 92.4264C88.3765 91.0522 87.0703 90.3936 86.6053 90.9384C86.1403 91.4913 86.701 93.0443 87.8568 94.4185Z" fill="#FF83FB"/>
<path d="M77.0311 108.583C78.1868 109.957 79.493 110.616 79.9581 110.071C80.4231 109.518 79.8623 107.965 78.7066 106.591C77.5508 105.217 76.2446 104.558 75.7796 105.103C75.3146 105.656 75.8754 107.209 77.0311 108.583Z" fill="#FF83FB"/>
<path d="M89.2861 68.277C90.4418 69.6511 91.748 70.3098 92.2131 69.765C92.6781 69.212 92.1173 67.659 90.9616 66.2848C89.8058 64.9107 88.4997 64.2521 88.0346 64.7969C87.5696 65.3498 88.1304 66.9028 89.2861 68.277Z" fill="#FF83FB"/>
<path d="M101.712 68.4721C102.868 69.8463 104.174 70.5049 104.639 69.9601C105.104 69.4153 104.543 67.8542 103.387 66.48C102.232 65.1058 100.926 64.4472 100.461 64.992C99.9955 65.5449 100.556 67.098 101.712 68.4721Z" fill="#FF83FB"/>
<path d="M90.8863 82.6365C92.0421 84.0107 93.3482 84.6693 93.8133 84.1245C94.2783 83.5797 93.7175 82.0186 92.5618 80.6444C91.4061 79.2702 90.0999 78.6116 89.6348 79.1564C89.1698 79.7012 89.7306 81.2624 90.8863 82.6365Z" fill="#FF83FB"/>
<path d="M103.524 84.7831C104.68 86.1573 105.986 86.8159 106.451 86.2711C106.916 85.7263 106.355 84.1652 105.2 82.791C104.044 81.4169 102.738 80.7582 102.273 81.303C101.808 81.8478 102.369 83.409 103.524 84.7831Z" fill="#FF83FB"/>
<path d="M113.707 70.0658C114.863 71.44 116.169 72.0986 116.634 71.5538C117.099 71.0009 116.538 69.4479 115.382 68.0737C114.227 66.6995 112.921 66.0409 112.456 66.5857C111.99 67.1386 112.551 68.6917 113.707 70.0658Z" fill="#FF83FB"/>
<path d="M113.707 83.661C114.863 85.0352 116.169 85.6938 116.634 85.149C117.099 84.5961 116.538 83.0431 115.382 81.6689C114.227 80.2948 112.921 79.6361 112.456 80.1809C111.99 80.7338 112.551 82.2869 113.707 83.661Z" fill="#FF83FB"/>
<path d="M105.124 99.1427C106.28 100.517 107.586 101.175 108.051 100.631C108.516 100.086 107.956 98.5247 106.8 97.1506C105.644 95.7764 104.338 95.1178 103.873 95.6626C103.408 96.2155 103.969 97.7685 105.124 99.1427Z" fill="#FF83FB"/>
<path d="M94.3466 108.583C95.5024 109.957 96.8086 110.616 97.2736 110.071C97.7386 109.518 97.1779 107.965 96.0221 106.591C94.8664 105.217 93.5602 104.558 93.0952 105.103C92.6301 105.656 93.1909 107.209 94.3466 108.583Z" fill="#FF83FB"/>
<path d="M64.3521 107.932C65.5079 109.307 66.8141 109.965 67.2791 109.42C67.7441 108.868 67.1834 107.314 66.0276 105.94C64.8719 104.566 63.5657 103.908 63.1007 104.452C62.6356 105.005 63.1964 106.558 64.3521 107.932Z" fill="#FF83FB"/>
</g>
<g style="mix-blend-mode:multiply" opacity="0.42">
<path d="M113.427 38.3626C104.742 40.1271 65.5695 49.3803 60.1669 49.5266C56.7613 49.6161 50.8458 48.6241 45.2244 47.6077C59.189 51.6732 58.4846 67.1386 58.6351 79.9614C58.7582 90.1741 59.4147 115.925 59.7224 127.797C60.0028 127.732 60.2832 127.65 60.5636 127.545C68.4076 124.585 94.5998 114.933 112.141 105.761C113.317 105.152 114.186 103.826 114.487 102.2C116.149 93.2639 121.674 62.6746 123.247 43.5746C123.753 37.9154 122.016 36.6144 113.42 38.3626H113.427Z" fill="#72108D"/>
</g>
<path style="mix-blend-mode:multiply" opacity="0.22" d="M113.427 38.3626C104.742 40.1271 65.5695 49.3803 60.1669 49.5266C56.7613 49.6161 50.8458 48.6241 45.2244 47.6077C44.2943 47.3394 43.3095 47.1198 42.2427 46.9572C25.187 44.3064 5.17693 40.5987 4.74609 45.1521C4.75977 45.3472 4.75977 45.5424 4.78713 45.7375C5.70351 52.1448 7.48841 64.1138 9.7657 76.8634C12.1045 89.987 14.9631 103.924 17.9516 113.624C18.3756 115.006 19.2236 116.096 20.2905 116.6C25.3306 118.991 41.2032 126.016 57.3562 127.959C57.7118 128 58.0743 128.008 58.4299 127.984C58.512 127.984 58.594 127.976 58.6693 127.967C59.0044 127.943 59.3326 127.886 59.6609 127.813C59.6814 127.813 59.7019 127.813 59.7224 127.805C60.0028 127.732 60.2832 127.65 60.5567 127.545C68.4007 124.585 94.593 114.933 112.134 105.761C113.31 105.152 114.179 103.826 114.48 102.2C116.142 93.2639 121.667 62.6746 123.24 43.5746C123.746 37.9154 122.009 36.6144 113.413 38.3626H113.427Z" fill="url(#paint1_linear_35_44)"/>
<g style="mix-blend-mode:multiply" opacity="0.29">
<path d="M112.175 103.631C94.6135 112.811 68.3939 122.487 60.5431 125.455C59.5036 125.845 58.4163 126 57.3357 125.87C41.169 123.918 25.2827 116.885 20.2358 114.486C19.1689 113.982 18.3278 112.892 17.8969 111.51C12.0567 92.5646 6.69514 57.2837 4.77346 43.8999C4.70508 44.4853 4.70508 45.1033 4.79398 45.7294C6.66095 58.7717 12.0704 94.5161 17.9585 113.624C18.3825 115.006 19.2305 116.096 20.2973 116.6C25.3374 118.991 41.2101 126.016 57.3631 127.959C58.4436 128.089 59.531 127.943 60.5704 127.545C68.4144 124.585 94.6067 114.933 112.148 105.761C113.324 105.152 114.193 103.826 114.494 102.2C116.231 92.8573 122.201 59.7881 123.452 41.0052C123.48 40.5905 123.459 40.184 123.418 39.7937C122.03 58.7636 116.237 90.8733 114.528 100.061C114.227 101.688 113.352 103.013 112.182 103.631H112.175Z" fill="#724C8D"/>
</g>
<path style="mix-blend-mode:color-dodge" opacity="0.09" d="M113.427 38.3626C104.742 40.1271 65.5695 49.3803 60.1669 49.5266C56.7613 49.6161 50.8458 48.6241 45.2244 47.6077C44.2943 47.3393 43.3095 47.1198 42.2427 46.9572C25.187 44.3064 5.17693 40.5987 4.74609 45.1521C4.75977 45.3472 4.75977 45.5424 4.78713 45.7375C5.70351 52.1448 7.48841 64.1138 9.7657 76.8634C11.0992 84.3359 12.5969 92.0767 14.1972 99.1427C13.9715 97.2807 13.6432 95.1584 13.1919 92.7354C6.13435 54.4459 50.8526 65.4555 59.0044 104.338C59.0044 104.338 75.5882 68.6754 103.634 61.3737C126.345 55.4623 117.79 79.1483 117.195 86.9948C119.431 73.92 122.208 56.2185 123.247 43.5828C123.753 37.9235 122.016 36.6225 113.42 38.3707L113.427 38.3626Z" fill="url(#paint2_linear_35_44)"/>
<path style="mix-blend-mode:multiply" d="M7.34481 62.5445C7.34481 62.5445 49.3413 68.4965 58.3821 69.0576C67.416 69.6105 122.256 53.6491 122.256 53.6491L122.871 47.7378L6.83875 59.349L7.34481 62.5445Z" fill="url(#paint3_linear_35_44)"/>
<path d="M0.0545847 41.6069C0.635875 45.331 1.86684 51.6488 4.22619 58.0724C4.65703 59.2514 5.54606 60.0808 6.58555 60.219C13.9235 61.2192 44.3831 65.2603 59.3393 65.7401C60.6934 65.7807 62.0269 65.6262 63.3536 65.2847C69.5085 63.691 115.765 53.8117 124.116 50.5918C125.134 50.2015 125.907 49.1689 126.126 47.876C126.694 44.5422 127.754 37.769 127.993 32.5895C128.082 30.5974 126.899 28.8817 125.299 28.7272C118.48 28.0767 92.678 25.7268 73.6048 25.1577C70.671 25.0682 67.7509 25.2959 64.8513 25.8244C50.9414 28.3532 16.9393 32.809 2.20878 37.3706C0.690584 37.8422 -0.246318 39.7042 0.047746 41.6069H0.0545847Z" fill="url(#paint4_linear_35_44)"/>
<g style="mix-blend-mode:color-dodge" opacity="0.22">
<path d="M19.0595 43.6153C20.8581 45.7538 22.6909 47.0466 23.1559 46.4937C23.6209 45.9408 22.5336 43.7617 20.735 41.6232C18.9364 39.4847 17.1037 38.1918 16.6386 38.7448C16.1736 39.2977 17.2609 41.4768 19.0595 43.6153Z" fill="#FF83FB"/>
<path d="M24.5031 62.5445C26.3017 64.683 28.1345 65.9759 28.5995 65.423C29.0645 64.87 27.9772 62.6909 26.1786 60.5524C24.38 58.4139 22.5473 57.1211 22.0822 57.674C21.6172 58.2269 22.7045 60.4061 24.5031 62.5445Z" fill="#FF83FB"/>
<path d="M36.4024 51.4537C38.201 53.5922 40.0338 54.885 40.4988 54.3321C40.9638 53.7792 39.8765 51.6001 38.0779 49.4616C36.2793 47.3231 34.4465 46.0302 33.9815 46.5832C33.5165 47.1361 34.6038 49.3152 36.4024 51.4537Z" fill="#FF83FB"/>
<path d="M52.3708 55.8526C54.1694 57.9911 56.0022 59.284 56.4672 58.731C56.9322 58.1781 55.8449 55.999 54.0463 53.8605C52.2477 51.722 50.4149 50.4292 49.9499 50.9821C49.4849 51.535 50.5722 53.7141 52.3708 55.8526Z" fill="#FF83FB"/>
<path d="M121.914 39.1676C123.069 40.5417 124.375 41.2004 124.841 40.6556C125.306 40.1027 124.745 38.5496 123.589 37.1755C122.433 35.8013 121.127 35.1427 120.662 35.6875C120.197 36.2404 120.758 37.7934 121.914 39.1676Z" fill="#FF83FB"/>
<path d="M80.7514 44.4853C81.9072 45.8595 83.2134 46.5181 83.6784 45.9733C84.1434 45.4204 83.5827 43.8674 82.4269 42.4932C81.2712 41.119 79.965 40.4604 79.5 41.0052C79.0349 41.5581 79.5957 43.1112 80.7514 44.4853Z" fill="#FF83FB"/>
<path d="M97.3695 41.8427C98.5252 43.2169 99.8314 43.8755 100.296 43.3307C100.761 42.7859 100.201 41.2248 99.045 39.8506C97.8892 38.4764 96.583 37.8178 96.118 38.3626C95.653 38.9155 96.2137 40.4686 97.3695 41.8427Z" fill="#FF83FB"/>
<path d="M82.3517 58.8449C83.5074 60.219 84.8136 60.8777 85.2786 60.3329C85.7436 59.78 85.1829 58.2269 84.0271 56.8528C82.8714 55.4786 81.5652 54.82 81.1002 55.3648C80.6351 55.9177 81.1959 57.4707 82.3517 58.8449Z" fill="#FF83FB"/>
<path d="M108.845 35.0451C109.508 35.8338 110.425 36.029 110.883 35.4761C111.348 34.9231 111.184 33.8417 110.52 33.053C109.857 32.2643 108.941 32.0691 108.482 32.622C108.024 33.1749 108.181 34.2564 108.845 35.0451Z" fill="#FF83FB"/>
<path d="M110.384 47.258C111.539 48.6322 112.845 49.2908 113.31 48.746C113.776 48.2012 113.215 46.6401 112.059 45.2659C110.903 43.8918 109.597 43.2331 109.132 43.7779C108.667 44.3227 109.228 45.8839 110.384 47.258Z" fill="#FF83FB"/>
<path d="M101.151 54.1614C102.307 55.5355 103.613 56.1941 104.078 55.6493C104.543 55.1046 103.983 53.5434 102.827 52.1692C101.671 50.7951 100.365 50.1365 99.8999 50.6812C99.4348 51.2342 99.9956 52.7872 101.151 54.1614Z" fill="#FF83FB"/>
<path d="M69.6727 58.1944C70.8284 59.5685 72.1346 60.2272 72.5997 59.6824C73.0647 59.1295 72.5039 57.5764 71.3482 56.2023C70.1924 54.8281 68.8862 54.1695 68.4212 54.7143C67.9562 55.2591 68.517 56.8202 69.6727 58.1944Z" fill="#FF83FB"/>
<path d="M10.9761 54.1614C12.7747 56.2998 14.6075 57.5927 15.0725 57.0398C15.5376 56.4869 14.4502 54.3077 12.6516 52.1692C10.8531 50.0308 9.02028 48.7379 8.55525 49.2908C8.09021 49.8437 9.17757 52.0229 10.9761 54.1614Z" fill="#FF83FB"/>
</g>
<path style="mix-blend-mode:multiply" opacity="0.22" d="M126.16 30.9552C125.018 30.8332 82.2696 37.8991 72.0389 40.8589C59.1342 43.8186 49.7515 40.6312 30.0971 40.1433C9.17066 39.6229 -0.588162 37.2486 0.054676 41.6069C0.635966 45.331 1.86693 51.6488 4.22628 58.0724C4.65712 59.2514 5.54615 60.0808 6.58564 60.219C13.9236 61.2192 44.3831 65.2603 59.3394 65.7401C60.6935 65.7807 62.027 65.6262 63.3537 65.2847C69.5085 63.691 115.766 53.8117 124.116 50.5918C125.135 50.2015 125.907 49.1689 126.126 47.876C126.68 44.6317 127.692 38.1431 127.966 33.0205C128.014 31.2479 127.562 31.1015 126.16 30.9552Z" fill="url(#paint5_linear_35_44)"/>
<g style="mix-blend-mode:multiply" opacity="0.42">
<path d="M124.116 50.5999C125.135 50.2096 125.907 49.177 126.126 47.8841C126.68 44.6398 127.692 38.1512 127.966 33.0286C128.014 31.256 127.562 31.1096 126.16 30.9633C124.492 30.7844 64.6121 40.4604 63.2785 45.3147C62.2527 49.0469 62.3622 60.4142 62.4647 65.4636C62.7588 65.4067 63.0597 65.3742 63.3606 65.301C69.5154 63.7073 115.772 53.828 124.122 50.6081L124.116 50.5999Z" fill="#72108D"/>
</g>
<path style="mix-blend-mode:color-dodge" opacity="0.18" d="M126.16 30.9552C125.018 30.8332 82.2696 37.8991 72.0389 40.8589C59.1342 43.8186 49.7515 40.6312 30.0971 40.1433C9.17066 39.6229 -0.588162 37.2486 0.054676 41.6069C0.608611 45.144 1.75751 51.039 3.90487 57.1373C-2.503 34.7117 41.0732 43.6153 62.4442 64.2765C62.4442 64.2765 94.8391 37.3381 117.988 35.5411C125.75 34.9394 125.894 42.3712 126.304 46.8108C126.872 43.347 127.72 37.6471 127.966 33.0286C128.014 31.256 127.562 31.1097 126.16 30.9633V30.9552Z" fill="url(#paint6_linear_35_44)"/>
<path d="M8.52102 40.4442C16.324 39.753 46.8519 41.8915 53.4855 43.9568C60.119 46.0221 62.3963 59.349 62.3963 59.349C62.3963 59.349 63.0186 45.6156 66.903 43.0217C70.7874 40.4279 111.655 33.1831 111.655 33.1831C103.982 34.7443 80.0333 38.8993 69.7821 40.6556C59.5241 42.4119 48.4385 41.3305 29.3449 40.0864C10.2512 38.8505 2.75599 37.1348 13.2876 34.6385C9.34166 35.3866 5.53934 36.3461 2.21573 37.3706C0.697542 37.8422 -0.23936 39.7042 0.054704 41.6069C0.526575 44.648 1.4498 49.4453 3.06373 54.6004C2.96799 54.0394 0.889026 41.1191 8.52786 40.4442H8.52102Z" fill="url(#paint7_linear_35_44)"/>
<path style="mix-blend-mode:screen" d="M8.52102 40.4442C16.324 39.753 46.8519 41.8915 53.4855 43.9568C60.119 46.0221 62.3963 59.349 62.3963 59.349C62.3963 59.349 63.0186 45.6156 66.903 43.0217C70.7874 40.4279 111.655 33.1831 111.655 33.1831C92.3156 36.834 80.0333 38.8993 69.7821 40.6556C59.5241 42.4119 48.4385 41.3305 29.3449 40.0864C10.2512 38.8505 2.75599 37.1348 13.2876 34.6385C9.34166 35.3866 5.53934 36.3461 2.21573 37.3706C0.697542 37.8422 -0.23936 39.7042 0.054704 41.6069C0.526575 44.648 1.4498 49.4453 3.06373 54.6004C2.96799 54.0394 0.889026 41.1191 8.52786 40.4442H8.52102Z" fill="url(#paint8_linear_35_44)"/>
<path d="M96.6035 30.573L114.788 27.8491L118.152 28.1174C118.152 28.1174 117.879 26.2066 116.607 25.8813C115.335 25.5561 105.747 25.8813 104.003 25.8813C102.259 25.8813 94.6887 26.5074 94.6887 26.5074L96.5967 30.573H96.6035Z" fill="url(#paint9_linear_35_44)"/>
<g style="mix-blend-mode:multiply" opacity="0.79">
<path d="M95.9539 28.3125C95.9539 28.3125 98.2243 26.9465 97.6977 27.9792C97.6977 27.9792 115.301 25.5317 116.6 25.8732C117.906 26.2229 118.145 28.1093 118.145 28.1093L96.8839 31.443L95.947 28.3044L95.9539 28.3125Z" fill="#B538B5"/>
</g>
<g style="mix-blend-mode:multiply">
<path d="M95.1537 34.3458C95.1537 34.3458 95.7008 37.3543 88.6296 37.2405C81.5584 37.1267 86.6259 34.6142 86.6259 34.6142L95.1606 34.3458H95.1537Z" fill="#DE60A9"/>
</g>
<g style="mix-blend-mode:multiply">
<path d="M19.9211 33.2563C19.9211 33.2563 10.1965 34.9069 26.9308 35.3541C43.6651 35.8013 35.5065 31.8008 34.0909 31.6138C32.6753 31.4186 19.9143 33.2644 19.9143 33.2644L19.9211 33.2563Z" fill="#DE60A9"/>
</g>
<path d="M25.693 8.94438C29.6868 8.32641 29.6663 3.56158 37.1615 4.41535C43.713 5.16341 48.9857 22.1087 50.2098 26.345C53.4103 28.0769 56.2826 27.5077 58.3615 26.5157C60.0302 25.7189 61.48 24.3935 62.6768 22.7835C65.6653 18.7749 75.0753 6.64327 82.721 2.40696C86.7558 0.170906 97.561 -1.08942 101.069 1.27674C104.571 3.64289 103.887 22.4176 101.158 27.028C98.4295 31.6383 95.694 35.5738 90.9548 35.5982C89.7033 35.5982 88.7869 35.8828 87.9799 36.3137C91.3241 37.2325 93.5193 38.1595 93.5877 39.0132C93.8612 42.4283 93.1227 103.818 91.7959 116.031C91.666 117.243 90.9274 118.235 89.9358 118.544L80.2317 121.52L78.6656 120.495L80.2591 119.893C80.2591 119.893 80.1086 48.8925 78.3237 41.6152C73.7828 42.4202 66.7116 39.3954 61.1996 36.9398C61.1996 36.9398 41.1554 38.5254 40.1706 43.3227C39.1858 48.112 39.1995 123.617 39.1995 123.617L41.087 124.447L38.0848 125.561L28.1071 121.731C27.177 121.373 26.5069 120.406 26.3838 119.251C25.0844 106.794 17.9516 37.0699 20.7965 36.2243C22.4173 35.7445 27.2591 34.9802 31.5401 34.3541C23.2106 33.9069 19.5724 32.8499 18.656 32.6791C17.1583 32.3864 10.7573 22.4339 10.983 15.5794C11.2087 8.72484 21.6992 9.57047 25.693 8.95251V8.94438Z" fill="url(#paint10_linear_35_44)"/>
<path style="mix-blend-mode:multiply" d="M37.4966 123.666C37.4077 121.975 36.1289 42.7209 37.8728 40.4279C39.6098 38.1349 43.7677 36.8258 43.7677 36.8258C42.1401 36.094 31.8342 34.5247 28.5585 34.8012C29.5501 34.6467 30.5622 34.5003 31.5401 34.354C23.2106 33.9068 19.5724 32.8497 18.656 32.679C17.1583 32.3862 10.7573 22.4337 10.983 15.5792C10.983 15.4166 11.0035 15.2702 11.024 15.1157C11.2907 13.6603 12.5149 11.473 17.5482 11.9202C24.9545 12.5788 42.8308 31.2641 42.8308 31.2641C41.4015 26.4993 50.2098 26.3529 50.2098 26.3529C46.8657 26.7514 44.6978 29.5729 46.0587 31.5731C47.9393 34.3458 56.6177 33.2807 56.6177 33.2807C56.6177 33.2807 67.5596 15.1483 81.1071 4.50464C86.154 1.47987 86.0993 6.93584 80.8403 22.9297C75.5677 38.948 71.4918 38.9643 71.4918 38.9643C74.1589 39.5497 87.214 36.2404 87.9799 36.3054C89.122 36.6225 90.1136 36.9315 90.948 37.2405C85.8668 36.3461 75.9028 39.4359 75.9028 39.4359C75.9028 39.4359 80.4779 38.8179 81.3191 40.9971C82.1602 43.1762 82.1807 117.543 81.9072 119.259C81.6336 120.975 80.2317 121.503 80.2317 121.503L78.6656 120.479L79.4316 119.186C79.4316 119.186 78.0775 61.5038 76.4773 46.51C76.3131 44.9895 75.3078 43.7698 74.0222 43.6153C68.9547 42.9973 60.9466 38.5496 60.9466 38.5496C60.9466 38.5496 44.1097 38.8179 43.1317 43.6072C42.147 48.3964 40.0817 122.91 40.0817 122.91L41.0938 124.414L38.0916 125.528C38.0916 125.528 37.5924 125.333 37.5035 123.642L37.4966 123.666Z" fill="url(#paint11_linear_35_44)"/>
<g style="mix-blend-mode:multiply">
<path d="M59.189 32.4757C59.189 32.4757 74.4051 10.5135 81.278 7.22857C86.9815 4.50465 75.7113 33.4758 70.3087 36.2892C64.9061 39.0944 59.1821 32.4757 59.1821 32.4757H59.189Z" fill="#AA2EA4"/>
</g>
<g style="mix-blend-mode:multiply">
<path d="M40.9228 32.1586C40.9228 32.1586 23.6824 15.506 17.7259 14.4897C11.7694 13.4733 11.9951 16.9046 14.6759 23.3932C17.3635 29.89 21.1111 30.8576 24.5236 31.443C27.9361 32.0203 40.9228 32.1586 40.9228 32.1586Z" fill="#AA2EA4"/>
</g>
<g style="mix-blend-mode:multiply">
<path d="M42.8377 31.256C43.207 36.1997 57.5819 37.3137 56.6245 33.671C56.6245 33.671 59.0317 36.6388 61.2065 36.9234L57.6367 37.3869C57.6367 37.3869 54.5114 35.7606 49.8269 36.0127C45.1492 36.2566 41.4631 35.3866 41.764 33.5978C42.0649 31.8089 42.8377 31.256 42.8377 31.256Z" fill="#AA2EC5"/>
</g>
<g style="mix-blend-mode:multiply">
<path d="M59.189 32.4757C59.189 32.4757 74.4051 10.5135 81.278 7.22857C85.7026 5.11448 79.9171 22.0679 74.576 31.0934C78.392 23.4827 59.189 32.4757 59.189 32.4757Z" fill="#AA2EC5"/>
</g>
<g style="mix-blend-mode:multiply">
<path d="M17.7259 14.4978C23.6824 15.5142 40.9228 32.1667 40.9228 32.1667C40.9228 32.1667 27.3274 22.9948 23.0874 23.8079C19.3398 24.5316 18.4303 28.7679 20.2357 30.1664C18.2046 29.1257 16.2624 27.223 14.6827 23.4014C11.9951 16.9046 11.7762 13.4814 17.7327 14.4978H17.7259Z" fill="#AA2EC5"/>
</g>
<path style="mix-blend-mode:multiply" opacity="0.51" d="M103.135 6.94397C101.179 -2.45559 85.1898 7.66764 83.9178 12.4162C82.639 17.1648 78.4058 32.1586 75.2053 35.5899C72.0048 39.0212 101.042 28.2556 102.519 22.8728C103.996 17.4982 103.141 6.94397 103.141 6.94397H103.135Z" fill="url(#paint12_linear_35_44)"/>
<path style="mix-blend-mode:color-dodge" opacity="0.4" d="M91.8917 37.6227C93.5877 39.005 80.8403 40.2978 80.8403 40.2978C80.8403 40.2978 81.5857 40.5417 81.3943 41.737C81.3943 41.737 90.4282 39.9075 91.8438 40.0457C93.2594 40.184 92.6029 101.338 92.6029 101.338C92.6029 101.338 93.6766 41.8915 93.574 40.0376C93.4646 38.1837 93.5877 38.7041 92.8081 38.0861C92.0285 37.4682 91.8985 37.6064 91.8985 37.6064L91.8917 37.6227Z" fill="url(#paint13_linear_35_44)"/>
<path style="mix-blend-mode:color-dodge" opacity="0.4" d="M39.6646 38.8017C37.6266 39.7286 21.966 36.2323 21.966 36.2323C21.966 36.2323 20.3247 35.8664 20.2358 38.4358C20.1469 41.0052 18.7723 36.6469 26.9514 38.4927C35.1305 40.3385 37.4351 43.3226 37.4351 43.3226C37.4351 43.3226 37.7976 41.5175 37.8728 40.4198C37.9549 39.3302 39.6577 38.8017 39.6577 38.8017H39.6646Z" fill="url(#paint14_linear_35_44)"/>
<path style="mix-blend-mode:color-dodge" opacity="0.4" d="M98.621 0.349648C100.522 1.27659 82.8304 3.7078 82.8304 3.7078C82.8304 3.7078 86.1951 2.42308 84.0888 11.66C84.0888 11.66 91.0164 3.6834 96.8156 3.24432C102.608 2.80524 103.011 5.63487 103.135 6.95211C103.135 6.95211 102.526 2.16289 101.288 1.46361C100.05 0.764334 98.621 0.357779 98.621 0.357779V0.349648Z" fill="url(#paint15_linear_35_44)"/>
<path style="mix-blend-mode:color-dodge" opacity="0.4" d="M48.5617 21.1897C48.5617 21.1897 41.087 8.61899 38.3446 8.04168C35.5955 7.45624 37.4488 13.2131 30.952 12.5463C24.4552 11.8796 20.6187 12.4244 23.8329 14.6929C23.8329 14.6929 19.4014 11.4893 16.2214 11.9934C16.2214 11.9934 24.9613 12.774 30.2818 10.0663C35.5955 7.35867 38.16 4.69979 33.7559 4.45586C33.7559 4.45586 39.3021 2.86216 43.0223 9.22882C46.7426 15.5955 48.5685 21.1897 48.5685 21.1897H48.5617Z" fill="url(#paint16_linear_35_44)"/>
<g style="mix-blend-mode:multiply" opacity="0.51">
<path d="M94.0049 28.3207C89.1152 25.2715 76.5525 35.1345 74.5624 37.6877C72.5724 40.2409 87.1251 36.7526 88.6228 35.8745C90.1205 34.9882 93.8613 34.2889 95.4342 32.2887C97.0071 30.2884 94.5725 28.6703 94.0049 28.3207Z" fill="#EF71C3"/>
</g>
<g style="mix-blend-mode:multiply" opacity="0.51">
<path d="M60.0028 25.5154C60.0028 25.5154 56.6108 31.3048 56.6177 32.4919C56.6177 33.6791 43.6104 36.3217 60.0028 25.5154Z" fill="#EF71C3"/>
</g>
<path style="mix-blend-mode:multiply" opacity="0.51" d="M43.3233 27.9873C43.3233 27.9873 33.6397 13.831 27.4643 11.1234C21.289 8.41571 35.7733 8.57833 39.5688 11.8714C43.3643 15.1645 47.1051 26.727 47.1051 26.727L43.3233 27.9873Z" fill="url(#paint17_linear_35_44)"/>
<path style="mix-blend-mode:multiply" opacity="0.51" d="M92.9448 81.9616C95.3794 58.2351 83.4732 68.4559 80.9224 87.377C78.3716 106.298 77.9065 115.909 84.5743 116.722C91.2352 117.535 90.9616 101.338 92.9448 81.9616Z" fill="url(#paint18_linear_35_44)"/>
<path style="mix-blend-mode:multiply" opacity="0.51" d="M38.2079 87.8486C32.0872 55.3404 20.2699 56.0153 23.0396 84.7831C25.8093 113.551 26.5889 121.048 33.9542 119.487C41.3195 117.926 39.4867 94.6055 38.2147 87.8486H38.2079Z" fill="url(#paint19_linear_35_44)"/>
<path d="M30.8426 12.7171C34.515 12.5544 37.2573 9.99315 37.3257 8.23683C37.3873 6.47238 31.6564 12.278 30.0425 12.4325C28.4217 12.587 29.468 12.7821 30.8495 12.7171H30.8426Z" fill="#FFDBFB"/>
<path d="M52.2613 43.2819C55.6465 44.3634 58.8265 44.2089 62.5331 42.8428C66.2396 41.4768 58.9838 41.8346 55.4482 41.9322C52.8221 41.9972 47.0092 41.6069 52.2613 43.2819Z" fill="#FFE5FF"/>
<path d="M6.4147 38.0292C5.1769 36.4274 15.5102 38.5984 12.2276 39.3871C9.45109 40.0539 7.94657 40.0132 6.4147 38.0292Z" fill="#FFE5FF"/>
</g>
<defs>
<linearGradient id="paint0_linear_35_44" x1="64.0923" y1="128" x2="64.0923" y2="25.4748" gradientUnits="userSpaceOnUse">
<stop stop-color="#450085"/>
<stop offset="0.53" stop-color="#8800AC"/>
<stop offset="0.99" stop-color="#AD2FFD"/>
</linearGradient>
<linearGradient id="paint1_linear_35_44" x1="64.0377" y1="127.992" x2="64.0377" y2="23.0029" gradientUnits="userSpaceOnUse">
<stop stop-color="#8800FC"/>
<stop offset="1" stop-color="#4E78F1"/>
</linearGradient>
<linearGradient id="paint2_linear_35_44" x1="64.0376" y1="104.338" x2="64.0376" y2="37.6389" gradientUnits="userSpaceOnUse">
<stop offset="0.09"/>
<stop offset="0.87" stop-color="#636FD6"/>
<stop offset="1" stop-color="#7483FB"/>
</linearGradient>
<linearGradient id="paint3_linear_35_44" x1="6.83875" y1="58.4058" x2="122.871" y2="58.4058" gradientUnits="userSpaceOnUse">
<stop stop-color="#7B00C6"/>
<stop offset="0.5" stop-color="#9A3C9C"/>
</linearGradient>
<linearGradient id="paint4_linear_35_44" x1="63.9965" y1="83.6692" x2="63.9965" y2="26.2716" gradientUnits="userSpaceOnUse">
<stop stop-color="#450085"/>
<stop offset="0.53" stop-color="#8800AC"/>
<stop offset="0.99" stop-color="#AD2FFD"/>
</linearGradient>
<linearGradient id="paint5_linear_35_44" x1="63.9965" y1="83.5147" x2="63.9965" y2="35.3134" gradientUnits="userSpaceOnUse">
<stop stop-color="#8800FC"/>
<stop offset="1" stop-color="#4E78F1"/>
</linearGradient>
<linearGradient id="paint6_linear_35_44" x1="63.9965" y1="64.2765" x2="63.9965" y2="30.947" gradientUnits="userSpaceOnUse">
<stop offset="0.09"/>
<stop offset="0.87" stop-color="#636FD6"/>
<stop offset="1" stop-color="#7483FB"/>
</linearGradient>
<linearGradient id="paint7_linear_35_44" x1="55.8312" y1="137.676" x2="55.8312" y2="24.7836" gradientUnits="userSpaceOnUse">
<stop stop-color="#AD2FFD"/>
<stop offset="0.47" stop-color="#8800AC"/>
<stop offset="1" stop-color="#450085"/>
</linearGradient>
<linearGradient id="paint8_linear_35_44" x1="95.4136" y1="46.266" x2="12.973" y2="46.266" gradientUnits="userSpaceOnUse">
<stop/>
<stop offset="0.08" stop-color="#1D1725"/>
<stop offset="0.22" stop-color="#4A3B5D"/>
<stop offset="0.36" stop-color="#715A8D"/>
<stop offset="0.5" stop-color="#9074B4"/>
<stop offset="0.63" stop-color="#A987D3"/>
<stop offset="0.76" stop-color="#BA95E9"/>
<stop offset="0.89" stop-color="#C59EF6"/>
<stop offset="1" stop-color="#C9A1FB"/>
</linearGradient>
<linearGradient id="paint9_linear_35_44" x1="109.091" y1="25.2471" x2="88.7432" y2="36.3643" gradientUnits="userSpaceOnUse">
<stop stop-color="#6ECDFF"/>
<stop offset="0.16" stop-color="#47B3FF"/>
<stop offset="0.28" stop-color="#2FA3FF"/>
<stop offset="0.36" stop-color="#279EFF"/>
<stop offset="0.94" stop-color="#078ABB"/>
</linearGradient>
<linearGradient id="paint10_linear_35_44" x1="57.6239" y1="133.42" x2="57.1188" y2="27.6037" gradientUnits="userSpaceOnUse">
<stop offset="0.26" stop-color="#078ABB"/>
<stop offset="0.73" stop-color="#279EFF"/>
<stop offset="0.79" stop-color="#2FA3FF"/>
<stop offset="0.88" stop-color="#47B3FF"/>
<stop offset="1" stop-color="#6ECDFF"/>
</linearGradient>
<linearGradient id="paint11_linear_35_44" x1="51.3384" y1="135.239" x2="50.7914" y2="20.6409" gradientUnits="userSpaceOnUse">
<stop offset="0.17" stop-color="#7B00C6"/>
<stop offset="0.46" stop-color="#8312BC"/>
<stop offset="1" stop-color="#9231AC"/>
</linearGradient>
<linearGradient id="paint12_linear_35_44" x1="89.2118" y1="36.11" x2="89.0541" y2="3.05754" gradientUnits="userSpaceOnUse">
<stop offset="0.17" stop-color="white"/>
<stop offset="0.35" stop-color="#FBDCF0"/>
<stop offset="0.8" stop-color="#F28FCF"/>
<stop offset="1" stop-color="#EF71C3"/>
</linearGradient>
<linearGradient id="paint13_linear_35_44" x1="94.6037" y1="69.4059" x2="82.6017" y2="69.4061" gradientUnits="userSpaceOnUse">
<stop offset="0.48"/>
<stop offset="0.51" stop-color="#140A14"/>
<stop offset="0.65" stop-color="#623465"/>
<stop offset="0.77" stop-color="#A156A5"/>
<stop offset="0.88" stop-color="#CD6ED3"/>
<stop offset="0.95" stop-color="#E97DF0"/>
<stop offset="1" stop-color="#F483FB"/>
</linearGradient>
<linearGradient id="paint14_linear_35_44" x1="18.5114" y1="39.7406" x2="36.9553" y2="39.6783" gradientUnits="userSpaceOnUse">
<stop stop-color="#F483FB"/>
<stop offset="0.09" stop-color="#E97DF0"/>
<stop offset="0.24" stop-color="#CD6ED3"/>
<stop offset="0.43" stop-color="#A156A5"/>
<stop offset="0.67" stop-color="#623465"/>
<stop offset="0.94" stop-color="#140A14"/>
<stop offset="1"/>
</linearGradient>
<linearGradient id="paint15_linear_35_44" x1="81.2045" y1="5.97345" x2="100.325" y2="5.9089" gradientUnits="userSpaceOnUse">
<stop stop-color="#F483FB"/>
<stop offset="0.37" stop-color="#8F4D93"/>
<stop offset="0.68" stop-color="#422344"/>
<stop offset="0.89" stop-color="#120912"/>
<stop offset="1"/>
</linearGradient>
<linearGradient id="paint16_linear_35_44" x1="13.6127" y1="12.7929" x2="44.0585" y2="12.6901" gradientUnits="userSpaceOnUse">
<stop stop-color="#F483FB"/>
<stop offset="0.09" stop-color="#E97DF0"/>
<stop offset="0.24" stop-color="#CD6ED3"/>
<stop offset="0.43" stop-color="#A156A5"/>
<stop offset="0.67" stop-color="#623465"/>
<stop offset="0.94" stop-color="#140A14"/>
<stop offset="1"/>
</linearGradient>
<linearGradient id="paint17_linear_35_44" x1="36.56" y1="27.9374" x2="36.4702" y2="9.12232" gradientUnits="userSpaceOnUse">
<stop stop-color="#EF71C3"/>
<stop offset="0.2" stop-color="#F28FCF"/>
<stop offset="0.65" stop-color="#FBDCF0"/>
<stop offset="0.83" stop-color="white"/>
</linearGradient>
<linearGradient id="paint18_linear_35_44" x1="86.3106" y1="116.671" x2="86.0788" y2="68.1049" gradientUnits="userSpaceOnUse">
<stop offset="0.17" stop-color="white"/>
<stop offset="0.35" stop-color="#FBDCF0"/>
<stop offset="0.8" stop-color="#F28FCF"/>
<stop offset="1" stop-color="#EF71C3"/>
</linearGradient>
<linearGradient id="paint19_linear_35_44" x1="31.1044" y1="119.61" x2="30.8353" y2="63.2378" gradientUnits="userSpaceOnUse">
<stop offset="0.17" stop-color="white"/>
<stop offset="0.35" stop-color="#FBDCF0"/>
<stop offset="0.8" stop-color="#F28FCF"/>
<stop offset="1" stop-color="#EF71C3"/>
</linearGradient>
<clipPath id="clip0_35_44">
<rect width="128" height="128" fill="white"/>
</clipPath>
</defs>
</svg>
