<svg width="64" height="64" viewBox="0 0 64 64" fill="none" xmlns="http://www.w3.org/2000/svg">
<path d="M20.2768 12.2768C24.9057 7.64781 27.2202 5.33333 30.0963 5.33333C32.9723 5.33333 35.2868 7.64781 39.9158 12.2768L51.6992 24.0602C56.3281 28.6891 58.6426 31.0036 58.6426 33.8797C58.6426 36.7557 56.3281 39.0702 51.6992 43.6992C47.0702 48.3281 44.7557 50.6426 41.8797 50.6426C39.0036 50.6426 36.6891 48.3281 32.0602 43.6992L20.2768 31.9158C15.6478 27.2868 13.3333 24.9723 13.3333 22.0963C13.3333 19.2202 15.6478 16.9057 20.2768 12.2768Z" fill="#3A4255"/>
<path d="M19.424 36.7198L7.5355 48.6083C6.62232 49.5215 6.16573 49.9781 5.89149 50.4531C5.1473 51.7421 5.14729 53.3302 5.89149 54.6192C6.16572 55.0942 6.6223 55.5507 7.53543 56.4639C8.44862 57.377 8.90528 57.8337 9.38027 58.108C10.6693 58.8521 12.2574 58.8521 13.5463 58.108C14.0213 57.8337 14.4779 57.3771 15.3911 56.4639L27.2796 44.5754L19.424 36.7198Z" fill="#3A4255"/>
<path d="M22.2524 33.8914L22.2641 33.8797L30.1197 41.7353L30.108 41.747L22.2524 33.8914Z" fill="#3A4255"/>
<path d="M52.4495 19.1536C53.1288 17.8861 53.1075 16.3537 52.3853 15.1029C52.1111 14.6279 51.6545 14.1713 50.7413 13.2581C49.8281 12.345 49.3715 11.8884 48.8965 11.6141C47.6457 10.892 46.1133 10.8706 44.8458 11.5499L52.4495 19.1536Z" fill="#3A4255"/>
</svg>
