<svg width="28" height="29" viewBox="0 0 28 29" fill="none" xmlns="http://www.w3.org/2000/svg">
<path fill-rule="evenodd" clip-rule="evenodd" d="M14 2.83325C7.55672 2.83325 2.33337 8.0566 2.33337 14.4999C2.33337 20.9432 7.55672 26.1666 14 26.1666C20.4434 26.1666 25.6667 20.9432 25.6667 14.4999C25.6667 8.0566 20.4434 2.83325 14 2.83325ZM13.0987 10.4971L10.7478 12.3692C9.76149 13.1547 9.26832 13.5474 9.36459 13.9859L9.3697 14.0076C9.47937 14.4434 10.1045 14.6109 11.3547 14.9459C12.0495 15.132 12.3969 15.2251 12.5599 15.4884L12.5682 15.5023C12.7254 15.7688 12.636 16.1026 12.4571 16.7701L12.4104 16.9445C11.9144 18.7953 11.6665 19.7207 12.144 20.0195C12.6216 20.3184 13.3814 19.7133 14.901 18.5032L17.2519 16.6311C18.2382 15.8457 18.7314 15.4529 18.6351 15.0145L18.63 14.9927C18.5203 14.557 17.8952 14.3895 16.645 14.0545C15.9502 13.8683 15.6029 13.7752 15.4399 13.5119L15.4315 13.498C15.2743 13.2315 15.3637 12.8978 15.5426 12.2303L15.5894 12.0557C16.0853 10.205 16.3332 9.27963 15.8557 8.98078C15.3781 8.68194 14.6183 9.287 13.0987 10.4971Z" fill="#3A4255"/>
</svg>
