<svg width="128" height="128" viewBox="0 0 128 128" fill="none" xmlns="http://www.w3.org/2000/svg">
<path d="M128 102.82L128 122.666C128 125.611 125.399 128 122.182 128C118.964 128 116.364 125.611 116.364 122.666L116.364 102.82C116.364 95.22 110.458 88.6224 102.33 87.129L62.8597 79.8913C60.1426 79.3953 58.1819 77.2032 58.1819 74.6644L58.1819 37.9002C58.1819 35.0308 56.0757 32.4707 53.3877 32.076C51.6073 31.8093 49.9201 32.236 48.5993 33.2654C47.2961 34.2788 46.5455 35.7615 46.5455 37.3296L46.5455 110.069C46.5455 112.117 45.2655 113.983 43.2524 114.874C41.251 115.765 38.8539 115.525 37.1026 114.239L21.7601 103.039C19.0663 100.756 15.3892 100.874 13.2074 103.018C11.0197 105.167 11.1419 108.559 13.4808 110.575L21.4924 117.658C23.8023 119.701 23.8721 123.077 21.6379 125.2C19.4095 127.317 15.7266 127.376 13.411 125.333L5.45755 118.304C-1.49517 112.325 -1.86753 102.18 4.70119 95.7373C11.2699 89.3051 22.3244 88.9584 29.3528 94.9693L34.9092 99.0175L34.9092 37.3296C34.9092 32.6307 37.1492 28.1878 41.059 25.137C44.963 22.0863 50.1412 20.7742 55.2495 21.5422C63.5521 22.7743 69.8124 29.8092 69.8124 37.8949L69.8124 70.2856L104.605 76.6645C118.156 79.15 127.994 90.1478 127.994 102.815L128 102.82ZM20.6197 55.997C21.4343 55.997 22.2546 55.8423 23.0459 55.5116C25.9666 54.2849 27.2466 51.1168 25.9084 48.4393C24.1572 44.9459 23.2728 41.207 23.2728 37.3296C23.2728 22.6249 36.323 10.6618 52.3637 10.6618C68.4044 10.6618 81.4546 22.6249 81.4546 37.3296C81.4546 41.2177 80.5702 44.9512 78.8248 48.4393C77.4808 51.1168 78.7608 54.2849 81.6757 55.5116C84.6139 56.7437 88.0582 55.5703 89.3906 52.8929C91.8459 48.002 93.0909 42.7644 93.0909 37.3349C93.0909 16.7474 74.8219 4.01633e-08 52.3637 2.81081e-08C29.9055 1.60529e-08 11.6365 16.742 11.6365 37.3296C11.6365 42.7538 12.8815 47.986 15.331 52.8875C16.3085 54.8449 18.4205 55.997 20.6255 55.997L20.6197 55.997Z" fill="white"/>
</svg>
