<svg width="128" height="128" viewBox="0 0 128 128" fill="none" xmlns="http://www.w3.org/2000/svg">
<path fill-rule="evenodd" clip-rule="evenodd" d="M128 64C128 99.3462 99.3462 128 64 128C28.6538 128 0 99.3462 0 64C0 28.6538 28.6538 0 64 0C99.3462 0 128 28.6538 128 64ZM83.2 44.8C83.2 55.4039 74.6039 64 64 64C53.3961 64 44.8 55.4039 44.8 44.8C44.8 34.1961 53.3961 25.6 64 25.6C74.6039 25.6 83.2 34.1961 83.2 44.8ZM63.9999 118.4C75.4178 118.4 86.0141 114.882 94.7643 108.872C98.629 106.217 100.281 101.16 98.0337 97.0447C93.3757 88.5136 83.7775 83.2 63.9996 83.2C44.222 83.2 34.6238 88.5134 29.9657 97.0443C27.7187 101.159 29.3702 106.216 33.2349 108.871C41.9852 114.882 52.5817 118.4 63.9999 118.4Z" fill="white"/>
</svg>
